<?xml version="1.0" encoding="utf-8"?>
<!-- Generator: Adobe Illustrator 18.1.1, SVG Export Plug-In . SVG Version: 6.00 Build 0)  -->
<svg version="1.1" id="Layer_1" xmlns="http://www.w3.org/2000/svg" xmlns:xlink="http://www.w3.org/1999/xlink" x="0px" y="0px"
	 width="230.9px" height="115.5px" viewBox="0 0 230.9 115.5" style="enable-background:new 0 0 230.9 115.5;" xml:space="preserve"
	>
<style type="text/css">
	.st0{fill:#8A1C2A;}
	.st1{fill:#FEFAD5;}
	.st2{fill:#282561;}
</style>
<g>
	<rect x="120.4" y="0" class="st0" width="79.2" height="115.5"/>
	<ellipse class="st1" cx="114.2" cy="54.4" rx="112" ry="47.2"/>
</g>
<g>
	<path class="st2" d="M51.6,69.5H33.3c-0.3,0-0.6-0.1-0.9-0.3C32.2,69,32,68.7,32,68.4V38.9c0-0.3,0.1-0.6,0.4-0.8
		c0.2-0.2,0.5-0.3,0.9-0.3c0.3,0,0.6,0.1,0.9,0.3s0.4,0.5,0.4,0.8v28.4h17c0.3,0,0.6,0.1,0.9,0.3c0.3,0.2,0.4,0.5,0.4,0.8
		s-0.1,0.6-0.4,0.8C52.2,69.4,51.9,69.5,51.6,69.5z"/>
	<path class="st2" d="M64.5,68.4V38.9c0-0.3,0.1-0.6,0.4-0.8c0.2-0.2,0.5-0.3,0.9-0.3h18.3c0.3,0,0.6,0.1,0.9,0.3
		c0.2,0.2,0.4,0.5,0.4,0.8s-0.1,0.6-0.4,0.8c-0.2,0.2-0.5,0.3-0.9,0.3h-17v12.6H82c0.3,0,0.6,0.1,0.9,0.3c0.2,0.2,0.4,0.5,0.4,0.8
		s-0.1,0.6-0.4,0.8c-0.2,0.2-0.5,0.3-0.9,0.3H67v12.5h17c0.3,0,0.6,0.1,0.9,0.3c0.2,0.2,0.4,0.5,0.4,0.8s-0.1,0.6-0.4,0.8
		c-0.2,0.2-0.5,0.3-0.9,0.3H65.6c-0.3,0-0.6-0.1-0.8-0.3C64.6,69,64.5,68.7,64.5,68.4z"/>
	<path class="st2" d="M97.5,69.3c-0.7-0.5-0.7-1-0.2-1.5l11.4-14l-11.4-14C97.1,39.6,97,39.3,97,39c0.1-0.3,0.2-0.6,0.5-0.7
		c0.3-0.2,0.6-0.3,0.9-0.2c0.4,0,0.6,0.2,0.8,0.4l11,13.5l11-13.5c0.5-0.6,1.1-0.6,1.7-0.2c0.3,0.2,0.4,0.4,0.5,0.7s0,0.6-0.3,0.8
		l-11.5,14l11.5,14c0.2,0.2,0.3,0.5,0.3,0.8c-0.1,0.3-0.2,0.5-0.5,0.7s-0.6,0.2-0.9,0.2s-0.6-0.2-0.9-0.5l-11-13.5L99.2,69
		c-0.2,0.3-0.5,0.5-0.8,0.5C98,69.5,97.7,69.5,97.5,69.3z"/>
	<path class="st2" d="M138.9,56.7V38.9c0-0.3,0.1-0.6,0.4-0.8c0.2-0.2,0.5-0.3,0.9-0.3c0.3,0,0.6,0.1,0.9,0.3
		c0.3,0.2,0.4,0.5,0.4,0.8v17.8c0,2.9,1.2,5.4,3.5,7.5c2.3,2.1,5.1,3.1,8.3,3.1c3.3,0,6.1-1.1,8.4-3.1c2.3-2.1,3.5-4.5,3.5-7.5V38.9
		c0-0.3,0.1-0.6,0.4-0.8c0.2-0.2,0.5-0.3,0.9-0.3c0.3,0,0.6,0.1,0.9,0.3c0.3,0.2,0.4,0.5,0.4,0.8v17.8c0,3.5-1.4,6.6-4.2,9.1
		c-2.8,2.5-6.2,3.8-10.1,3.8c-4,0-7.3-1.3-10.1-3.8C140.3,63.3,138.9,60.2,138.9,56.7z"/>
	<path class="st2" d="M185.4,45.6c0.1,3,3.5,5.1,10.2,6.3h0.1c3.9,0.6,6.9,1.6,9,2.9c2.6,1.5,3.9,3.5,3.9,6s-1.3,4.6-3.9,6.3
		c-2.6,1.7-5.7,2.5-9.2,2.5c-4.5,0-8.8-1.6-13.1-4.6c-0.5-0.4-0.6-0.9-0.2-1.4c0.2-0.2,0.5-0.3,0.8-0.4c0.3,0,0.6,0,0.8,0.2
		c3.8,2.7,7.7,4.1,11.7,4.1c3.1,0,5.7-0.7,7.8-2.1c2-1.3,3-2.9,3-4.7c0-3.4-3.7-5.7-11.1-6.9l0,0c-8-1.3-12-4.1-12-8.2
		c0-2.4,1.2-4.3,3.6-5.9c2.4-1.6,5.3-2.4,8.7-2.4c1.5,0,2.9,0.2,4.4,0.7c1.5,0.4,2.6,0.9,3.4,1.3c0.8,0.4,1.9,1,3.1,1.7
		c0.6,0.4,0.7,0.8,0.3,1.4c-0.4,0.5-0.9,0.6-1.5,0.3c-1.2-0.7-2.2-1.2-3-1.6c-0.8-0.4-1.8-0.8-3-1.2c-1.3-0.4-2.5-0.6-3.7-0.6
		c-2.8,0-5.3,0.6-7.3,1.9C186.3,42.5,185.4,43.9,185.4,45.6z"/>
</g>
<g>
</g>
<g>
</g>
<g>
</g>
<g>
</g>
<g>
</g>
<g>
</g>
</svg>
