<?xml version="1.0" encoding="utf-8"?>
<!-- Generator: Adobe Illustrator 18.1.1, SVG Export Plug-In . SVG Version: 6.00 Build 0)  -->
<svg version="1.1" id="Layer_1" xmlns="http://www.w3.org/2000/svg" xmlns:xlink="http://www.w3.org/1999/xlink" x="0px" y="0px"
	 width="526.2px" height="115.5px" viewBox="-132 249.5 526.2 115.5" enable-background="new -132 249.5 526.2 115.5"
	 xml:space="preserve">
<rect x="-132" y="249.5" fill="#2E1123" width="526.2" height="115.5"/>
<g>
	<polygon fill="#8A1C2A" points="-11.6,249.5 67.6,249.5 67.6,365 67.6,365 53.5,357.6 40.2,365 29.8,358.3 16.9,365 2.8,358.3 
		-11.6,365 	"/>
	<ellipse fill="#FEFAD5" cx="-17.8" cy="303.9" rx="112" ry="47.2"/>
</g>
<g>
	<path fill="#282561" d="M-80.4,319h-18.3c-0.3,0-0.6-0.1-0.9-0.3c-0.2-0.2-0.4-0.5-0.4-0.8v-29.5c0-0.3,0.1-0.6,0.4-0.8
		c0.2-0.2,0.5-0.3,0.9-0.3c0.3,0,0.6,0.1,0.9,0.3c0.3,0.2,0.4,0.5,0.4,0.8v28.4h17c0.3,0,0.6,0.1,0.9,0.3c0.3,0.2,0.4,0.5,0.4,0.8
		c0,0.3-0.1,0.6-0.4,0.8C-79.8,318.9-80.1,319-80.4,319z"/>
	<path fill="#282561" d="M-67.5,317.9v-29.5c0-0.3,0.1-0.6,0.4-0.8c0.2-0.2,0.5-0.3,0.9-0.3h18.3c0.3,0,0.6,0.1,0.9,0.3
		c0.2,0.2,0.4,0.5,0.4,0.8c0,0.3-0.1,0.6-0.4,0.8c-0.2,0.2-0.5,0.3-0.9,0.3h-17v12.6H-50c0.3,0,0.6,0.1,0.9,0.3
		c0.2,0.2,0.4,0.5,0.4,0.8c0,0.3-0.1,0.6-0.4,0.8c-0.2,0.2-0.5,0.3-0.9,0.3h-15v12.5h17c0.3,0,0.6,0.1,0.9,0.3
		c0.2,0.2,0.4,0.5,0.4,0.8c0,0.3-0.1,0.6-0.4,0.8c-0.2,0.2-0.5,0.3-0.9,0.3h-18.4c-0.3,0-0.6-0.1-0.8-0.3
		C-67.4,318.5-67.5,318.2-67.5,317.9z"/>
	<path fill="#282561" d="M-34.5,318.8c-0.7-0.5-0.7-1-0.2-1.5l11.4-14l-11.4-14c-0.2-0.2-0.3-0.5-0.3-0.8c0.1-0.3,0.2-0.6,0.5-0.7
		c0.3-0.2,0.6-0.3,0.9-0.2c0.4,0,0.6,0.2,0.8,0.4l11,13.5l11-13.5c0.5-0.6,1.1-0.6,1.7-0.2c0.3,0.2,0.4,0.4,0.5,0.7s0,0.6-0.3,0.8
		l-11.5,14l11.5,14c0.2,0.2,0.3,0.5,0.3,0.8c-0.1,0.3-0.2,0.5-0.5,0.7C-9.4,319-9.7,319-10,319s-0.6-0.2-0.9-0.5l-11-13.5
		l-10.9,13.5c-0.2,0.3-0.5,0.5-0.8,0.5C-34,319-34.3,319-34.5,318.8z"/>
	<path fill="#282561" d="M6.9,306.2v-17.8c0-0.3,0.1-0.6,0.4-0.8c0.2-0.2,0.5-0.3,0.9-0.3c0.3,0,0.6,0.1,0.9,0.3
		c0.3,0.2,0.4,0.5,0.4,0.8v17.8c0,2.9,1.2,5.4,3.5,7.5c2.3,2.1,5.1,3.1,8.3,3.1c3.3,0,6.1-1.1,8.4-3.1c2.3-2.1,3.5-4.5,3.5-7.5
		v-17.8c0-0.3,0.1-0.6,0.4-0.8c0.2-0.2,0.5-0.3,0.9-0.3c0.3,0,0.6,0.1,0.9,0.3c0.3,0.2,0.4,0.5,0.4,0.8v17.8c0,3.5-1.4,6.6-4.2,9.1
		s-6.2,3.8-10.1,3.8c-4,0-7.3-1.3-10.1-3.8C8.3,312.8,6.9,309.7,6.9,306.2z"/>
	<path fill="#282561" d="M53.4,295.1c0.1,3,3.5,5.1,10.2,6.3h0.1c3.9,0.6,6.9,1.6,9,2.9c2.6,1.5,3.9,3.5,3.9,6s-1.3,4.6-3.9,6.3
		c-2.6,1.7-5.7,2.5-9.2,2.5c-4.5,0-8.8-1.6-13.1-4.6c-0.5-0.4-0.6-0.9-0.2-1.4c0.2-0.2,0.5-0.3,0.8-0.4c0.3,0,0.6,0,0.8,0.2
		c3.8,2.7,7.7,4.1,11.7,4.1c3.1,0,5.7-0.7,7.8-2.1c2-1.3,3-2.9,3-4.7c0-3.4-3.7-5.7-11.1-6.9l0,0c-8-1.3-12-4.1-12-8.2
		c0-2.4,1.2-4.3,3.6-5.9c2.4-1.6,5.3-2.4,8.7-2.4c1.5,0,2.9,0.2,4.4,0.7c1.5,0.4,2.6,0.9,3.4,1.3c0.8,0.4,1.9,1,3.1,1.7
		c0.6,0.4,0.7,0.8,0.3,1.4c-0.4,0.5-0.9,0.6-1.5,0.3c-1.2-0.7-2.2-1.2-3-1.6s-1.8-0.8-3-1.2c-1.3-0.4-2.5-0.6-3.7-0.6
		c-2.8,0-5.3,0.6-7.3,1.9C54.3,292,53.4,293.4,53.4,295.1z"/>
</g>
</svg>
