<svg xmlns="http://www.w3.org/2000/svg" width="526.2" height="115.5" viewBox="-132 249.5 526.2 115.5" enable-background="new -132 249.5 526.2 115.5"><path fill="#2E1123" d="M-132 249.5h526.2v115.5h-526.2z"/><path fill="#8A1C2A" d="M-11.6 249.5h79.2v115.5l-14.1-7.4-13.3 7.4-10.4-6.7-12.9 6.7-14.1-6.7-14.4 6.7z"/><ellipse fill="#FEFAD5" cx="-17.8" cy="303.9" rx="112" ry="47.2"/><g fill="#282561"><path d="M-80.4 319h-18.3c-.3 0-.6-.1-.9-.3-.2-.2-.4-.5-.4-.8v-29.5c0-.3.1-.6.4-.8.2-.2.5-.3.9-.3.3 0 .6.1.9.3.3.2.4.5.4.8v28.4h17c.3 0 .6.1.9.3.3.2.4.5.4.8 0 .3-.1.6-.4.8-.3.2-.6.3-.9.3zM-67.5 317.9v-29.5c0-.3.1-.6.4-.8.2-.2.5-.3.9-.3h18.3c.3 0 .6.1.9.3.2.2.4.5.4.8 0 .3-.1.6-.4.8-.2.2-.5.3-.9.3h-17v12.6h14.9c.3 0 .6.1.9.3.2.2.4.5.4.8 0 .3-.1.6-.4.8-.2.2-.5.3-.9.3h-15v12.5h17c.3 0 .6.1.9.3.2.2.4.5.4.8 0 .3-.1.6-.4.8-.2.2-.5.3-.9.3h-18.4c-.3 0-.6-.1-.8-.3-.2-.2-.3-.5-.3-.8zM-34.5 318.8c-.7-.5-.7-1-.2-1.5l11.4-14-11.4-14c-.2-.2-.3-.5-.3-.8.1-.3.2-.6.5-.7.3-.2.6-.3.9-.2.4 0 .6.2.8.4l11 13.5 11-13.5c.5-.6 1.1-.6 1.7-.2.3.2.4.4.5.7s0 .6-.3.8l-11.5 14 11.5 14c.2.2.3.5.3.8-.1.3-.2.5-.5.7-.3.2-.6.2-.9.2s-.6-.2-.9-.5l-11-13.5-10.9 13.5c-.2.3-.5.5-.8.5-.4 0-.7 0-.9-.2zM6.9 306.2v-17.8c0-.3.1-.6.4-.8.2-.2.5-.3.9-.3.3 0 .6.1.9.3.3.2.4.5.4.8v17.8c0 2.9 1.2 5.4 3.5 7.5 2.3 2.1 5.1 3.1 8.3 3.1 3.3 0 6.1-1.1 8.4-3.1 2.3-2.1 3.5-4.5 3.5-7.5v-17.8c0-.3.1-.6.4-.8.2-.2.5-.3.9-.3.3 0 .6.1.9.3.3.2.4.5.4.8v17.8c0 3.5-1.4 6.6-4.2 9.1s-6.2 3.8-10.1 3.8c-4 0-7.3-1.3-10.1-3.8-3.1-2.5-4.5-5.6-4.5-9.1zM53.4 295.1c.1 3 3.5 5.1 10.2 6.3h.1c3.9.6 6.9 1.6 9 2.9 2.6 1.5 3.9 3.5 3.9 6s-1.3 4.6-3.9 6.3c-2.6 1.7-5.7 2.5-9.2 2.5-4.5 0-8.8-1.6-13.1-4.6-.5-.4-.6-.9-.2-1.4.2-.2.5-.3.8-.4.3 0 .6 0 .8.2 3.8 2.7 7.7 4.1 11.7 4.1 3.1 0 5.7-.7 7.8-2.1 2-1.3 3-2.9 3-4.7 0-3.4-3.7-5.7-11.1-6.9-8-1.3-12-4.1-12-8.2 0-2.4 1.2-4.3 3.6-5.9 2.4-1.6 5.3-2.4 8.7-2.4 1.5 0 2.9.2 4.4.7 1.5.4 2.6.9 3.4 1.3.8.4 1.9 1 3.1 1.7.6.4.7.8.3 1.4-.4.5-.9.6-1.5.3-1.2-.7-2.2-1.2-3-1.6s-1.8-.8-3-1.2c-1.3-.4-2.5-.6-3.7-.6-2.8 0-5.3.6-7.3 1.9-1.9 1.3-2.8 2.7-2.8 4.4z"/></g></svg>