<svg xmlns="http://www.w3.org/2000/svg" width="277.5" height="173.4" viewBox="0 0 277.5 173.4"><style type="text/css">.st0{fill:#FEFAD6;}</style><path class="st0" d="M251.2 46.4h-227.3c-6.6 0-12-5.4-12-12v-10.6c0-6.6 5.4-12 12-12h227.3c6.6 0 12 5.4 12 12v10.5c0 6.7-5.4 12.1-12 12.1zM251.2 103.4h-227.3c-6.6 0-12-5.4-12-12v-10.5c0-6.6 5.4-12 12-12h227.3c6.6 0 12 5.4 12 12v10.5c0 6.6-5.4 12-12 12zM251.2 158.6h-227.3c-6.6 0-12-5.4-12-12v-10.6c0-6.6 5.4-12 12-12h227.3c6.6 0 12 5.4 12 12v10.5c0 6.7-5.4 12.1-12 12.1z"/></svg>